<svg width="29" height="23" viewBox="0 0 29 23" fill="none" xmlns="http://www.w3.org/2000/svg">
<path d="M28.6375 14.4877C28.551 14.2464 28.4494 14.0107 28.3333 13.7821L22.9488 1.53223C22.8979 1.41425 22.825 1.30704 22.7339 1.21634C22.3492 0.831539 21.8925 0.526293 21.3898 0.318036C20.8871 0.109779 20.3483 0.00258934 19.8042 0.00258934C19.26 0.00258934 18.7212 0.109779 18.2185 0.318036C17.7158 0.526293 17.2591 0.831539 16.8744 1.21634C16.6808 1.4101 16.5719 1.67264 16.5714 1.94652V5.18312H12.4286V1.94652C12.4287 1.81047 12.402 1.67572 12.35 1.54999C12.298 1.42426 12.2218 1.31001 12.1256 1.21375C11.7409 0.828949 11.2842 0.523704 10.7815 0.315447C10.2788 0.10719 9.73998 0 9.19585 0C8.65172 0 8.11292 0.10719 7.61023 0.315447C7.10753 0.523704 6.65078 0.828949 6.26607 1.21375C6.17504 1.30445 6.1021 1.41166 6.05116 1.52964L0.666742 13.7796C0.550596 14.0081 0.44898 14.2438 0.362501 14.4851C0.0576119 15.3382 -0.0570687 16.2477 0.0264919 17.1497C0.110053 18.0518 0.389834 18.9247 0.846236 19.7072C1.30264 20.4898 1.92462 21.1631 2.66862 21.68C3.41262 22.1969 4.26064 22.5449 5.15327 22.6996C6.0459 22.8542 6.96155 22.8119 7.83609 22.5755C8.71062 22.339 9.52289 21.9142 10.216 21.3309C10.9091 20.7475 11.4663 20.0196 11.8485 19.1983C12.2307 18.3769 12.4287 17.4819 12.4286 16.576V7.25455H16.5714V16.576C16.571 17.482 16.7686 18.3772 17.1506 19.1988C17.5325 20.0204 18.0895 20.7485 18.7825 21.3322C19.4755 21.9159 20.2878 22.3409 21.1624 22.5776C22.0369 22.8143 22.9527 22.8569 23.8455 22.7024C24.7382 22.5479 25.5864 22.2 26.3306 21.6832C27.0747 21.1663 27.6969 20.493 28.1534 19.7104C28.61 18.9278 28.8899 18.0548 28.9735 17.1526C29.0571 16.2505 28.9424 15.3409 28.6375 14.4877ZM7.85978 2.56147C8.20508 2.27073 8.63592 2.10073 9.08672 2.07736C9.53752 2.05399 9.98362 2.17852 10.3571 2.43201V11.9489C9.54851 11.2228 8.56326 10.722 7.5001 10.4966C6.43694 10.2712 5.33321 10.3291 4.29951 10.6646L7.85978 2.56147ZM6.21429 20.7188C5.39491 20.7188 4.59393 20.4759 3.91264 20.0206C3.23135 19.5654 2.70035 18.9184 2.38679 18.1614C2.07322 17.4044 1.99118 16.5714 2.15103 15.7678C2.31089 14.9641 2.70545 14.2259 3.28484 13.6465C3.86423 13.0672 4.60242 12.6726 5.40605 12.5127C6.20969 12.3529 7.04268 12.4349 7.79969 12.7485C8.5567 13.062 9.20372 13.593 9.65895 14.2743C10.1142 14.9556 10.3571 15.7566 10.3571 16.576C10.3571 17.6747 9.92067 18.7285 9.14373 19.5054C8.36679 20.2824 7.31304 20.7188 6.21429 20.7188ZM18.6429 2.43071C19.0164 2.17723 19.4625 2.0527 19.9133 2.07607C20.3641 2.09944 20.7949 2.26943 21.1402 2.56018L24.7005 10.6621C23.6667 10.3267 22.5629 10.269 21.4997 10.4946C20.4366 10.7202 19.4514 11.2213 18.6429 11.9476V2.43071ZM22.7857 20.7188C21.9663 20.7188 21.1654 20.4759 20.4841 20.0206C19.8028 19.5654 19.2718 18.9184 18.9582 18.1614C18.6446 17.4044 18.5626 16.5714 18.7225 15.7678C18.8823 14.9641 19.2769 14.2259 19.8563 13.6465C20.4357 13.0672 21.1738 12.6726 21.9775 12.5127C22.7811 12.3529 23.6141 12.4349 24.3711 12.7485C25.1281 13.062 25.7752 13.593 26.2304 14.2743C26.6856 14.9556 26.9286 15.7566 26.9286 16.576C26.9286 17.6747 26.4921 18.7285 25.7152 19.5054C24.9382 20.2824 23.8845 20.7188 22.7857 20.7188Z" fill="#1D1D1D"/>
</svg>
