<svg width="24" height="24" viewBox="0 0 24 24" fill="none" xmlns="http://www.w3.org/2000/svg">
<path d="M8.24994 2.25006V1.50006C8.24994 1.30115 8.32896 1.11038 8.46961 0.969732C8.61026 0.829079 8.80103 0.750062 8.99994 0.750062C9.19885 0.750062 9.38962 0.829079 9.53027 0.969732C9.67092 1.11038 9.74994 1.30115 9.74994 1.50006V2.25006C9.74994 2.44897 9.67092 2.63974 9.53027 2.78039C9.38962 2.92104 9.19885 3.00006 8.99994 3.00006C8.80103 3.00006 8.61026 2.92104 8.46961 2.78039C8.32896 2.63974 8.24994 2.44897 8.24994 2.25006ZM1.49994 9.75006H2.24994C2.44885 9.75006 2.63962 9.67104 2.78027 9.53039C2.92092 9.38974 2.99994 9.19897 2.99994 9.00006C2.99994 8.80115 2.92092 8.61038 2.78027 8.46973C2.63962 8.32908 2.44885 8.25006 2.24994 8.25006H1.49994C1.30103 8.25006 1.11026 8.32908 0.96961 8.46973C0.828957 8.61038 0.74994 8.80115 0.74994 9.00006C0.74994 9.19897 0.828957 9.38974 0.96961 9.53039C1.11026 9.67104 1.30103 9.75006 1.49994 9.75006ZM11.6643 3.67131C11.7525 3.71545 11.8484 3.74178 11.9467 3.7488C12.0451 3.75582 12.1438 3.74339 12.2373 3.71222C12.3308 3.68105 12.4173 3.63175 12.4917 3.56714C12.5662 3.50253 12.6272 3.42388 12.6712 3.33569L13.4212 1.83569C13.5102 1.65778 13.5249 1.45181 13.462 1.26307C13.3992 1.07433 13.2639 0.918294 13.086 0.82928C12.9081 0.740267 12.7022 0.725571 12.5134 0.788425C12.3247 0.851279 12.1686 0.986534 12.0796 1.16444L11.3296 2.66444C11.2855 2.75252 11.2591 2.84844 11.252 2.94672C11.2449 3.045 11.2573 3.14372 11.2883 3.23723C11.3194 3.33073 11.3686 3.4172 11.4331 3.49168C11.4976 3.56616 11.5762 3.6272 11.6643 3.67131ZM2.66431 11.3297L1.16431 12.0798C0.986412 12.1688 0.851157 12.3248 0.788303 12.5135C0.725449 12.7023 0.740145 12.9083 0.829158 13.0862C0.918172 13.2641 1.07421 13.3993 1.26295 13.4622C1.45169 13.525 1.65766 13.5103 1.83556 13.4213L3.33556 12.6713C3.42365 12.6272 3.5022 12.5662 3.56671 12.4918C3.63123 12.4174 3.68045 12.331 3.71158 12.2375C3.7427 12.1441 3.75511 12.0454 3.7481 11.9471C3.74109 11.8489 3.7148 11.753 3.67072 11.6649C3.62665 11.5768 3.56565 11.4983 3.49122 11.4338C3.41679 11.3692 3.33038 11.32 3.23693 11.2889C3.14348 11.2578 3.04481 11.2454 2.94656 11.2524C2.84831 11.2594 2.7524 11.2857 2.66431 11.3297ZM20.5603 17.2501C20.6996 17.3894 20.8101 17.5547 20.8855 17.7367C20.9609 17.9187 20.9997 18.1138 20.9997 18.3108C20.9997 18.5079 20.9609 18.7029 20.8855 18.8849C20.8101 19.067 20.6996 19.2323 20.5603 19.3716L19.3715 20.5604C19.2322 20.6997 19.0668 20.8102 18.8848 20.8856C18.7028 20.961 18.5077 20.9998 18.3107 20.9998C18.1137 20.9998 17.9186 20.961 17.7366 20.8856C17.5546 20.8102 17.3892 20.6997 17.2499 20.5604L12.4406 15.7501L10.7812 20.071C10.7812 20.0804 10.7737 20.0907 10.769 20.101C10.6542 20.3686 10.4632 20.5965 10.2199 20.7564C9.97648 20.9163 9.69144 21.001 9.40025 21.0001H9.32619C9.0225 20.9872 8.73009 20.8814 8.48848 20.697C8.24687 20.5125 8.06772 20.2584 7.97525 19.9688L3.07494 4.96131C2.99082 4.69885 2.98063 4.41828 3.04551 4.15041C3.11039 3.88253 3.24781 3.63772 3.4427 3.44283C3.63759 3.24794 3.88241 3.11051 4.15028 3.04563C4.41816 2.98076 4.69872 2.99094 4.96119 3.07506L19.9687 7.97537C20.2555 8.07132 20.5066 8.25174 20.6891 8.49295C20.8716 8.73415 20.9769 9.02489 20.9912 9.327C21.0054 9.62911 20.9281 9.92848 20.7692 10.1858C20.6103 10.4432 20.3774 10.6465 20.1009 10.7691L20.0709 10.7813L15.7499 12.4397L20.5603 17.2501ZM19.4999 18.3104L14.6896 13.5001C14.5165 13.3272 14.3882 13.1147 14.3161 12.8809C14.2439 12.6472 14.23 12.3993 14.2756 12.159C14.3211 11.9186 14.4248 11.6931 14.5775 11.502C14.7303 11.3109 14.9274 11.16 15.1518 11.0626L15.1818 11.0494L19.4896 9.39569L4.49994 4.50006L9.39369 19.4869L11.0484 15.1744C11.0484 15.1641 11.0559 15.1538 11.0606 15.1435C11.158 14.9193 11.3089 14.7223 11.4999 14.5697C11.6909 14.4171 11.9163 14.3135 12.1565 14.2679C12.2493 14.2507 12.3434 14.2419 12.4378 14.2416C12.8352 14.2421 13.2162 14.4002 13.4971 14.6813L18.3103 19.5001L19.4999 18.3104Z" fill="#1D1D1D"/>
</svg>
