<svg width="18" height="19" viewBox="0 0 18 19" fill="none" xmlns="http://www.w3.org/2000/svg">
<path d="M16.5 0.75059H12C11.6022 0.75059 11.2206 0.908625 10.9393 1.18993C10.658 1.47123 10.5 1.85277 10.5 2.25059V17.2506C10.5 17.6484 10.658 18.0299 10.9393 18.3112C11.2206 18.5926 11.6022 18.7506 12 18.7506H16.5C16.8978 18.7506 17.2794 18.5926 17.5607 18.3112C17.842 18.0299 18 17.6484 18 17.2506V2.25059C18 1.85277 17.842 1.47123 17.5607 1.18993C17.2794 0.908625 16.8978 0.75059 16.5 0.75059ZM16.5 17.2506H12V14.2506H14.25C14.4489 14.2506 14.6397 14.1716 14.7803 14.0309C14.921 13.8903 15 13.6995 15 13.5006C15 13.3017 14.921 13.1109 14.7803 12.9703C14.6397 12.8296 14.4489 12.7506 14.25 12.7506H12V10.5006H14.25C14.4489 10.5006 14.6397 10.4216 14.7803 10.2809C14.921 10.1403 15 9.9495 15 9.75059C15 9.55168 14.921 9.36091 14.7803 9.22026C14.6397 9.07961 14.4489 9.00059 14.25 9.00059H12V6.75059H14.25C14.4489 6.75059 14.6397 6.67157 14.7803 6.53092C14.921 6.39027 15 6.1995 15 6.00059C15 5.80168 14.921 5.61091 14.7803 5.47026C14.6397 5.32961 14.4489 5.25059 14.25 5.25059H12V2.25059H16.5V17.2506ZM4.28063 0.219965C4.21097 0.150233 4.12825 0.0949133 4.03721 0.05717C3.94616 0.0194268 3.84856 0 3.75 0C3.65144 0 3.55384 0.0194268 3.4628 0.05717C3.37175 0.0949133 3.28903 0.150233 3.21938 0.219965L0.219375 3.21996C0.149749 3.28967 0.0945388 3.37241 0.0568978 3.46345C0.0192567 3.5545 -7.72394e-05 3.65207 2.31901e-07 3.75059V17.2506C2.31901e-07 17.6484 0.158035 18.0299 0.43934 18.3112C0.720645 18.5926 1.10218 18.7506 1.5 18.7506H6C6.39782 18.7506 6.77936 18.5926 7.06066 18.3112C7.34196 18.0299 7.5 17.6484 7.5 17.2506V3.75059C7.50008 3.65207 7.48074 3.5545 7.4431 3.46345C7.40546 3.37241 7.35025 3.28967 7.28063 3.21996L4.28063 0.219965ZM1.5 14.2506V5.25059H3V14.2506H1.5ZM4.5 5.25059H6V14.2506H4.5V5.25059ZM3.75 1.8109L5.68969 3.75059H1.81031L3.75 1.8109ZM1.5 17.2506V15.7506H6V17.2506H1.5Z" fill="#1D1D1D"/>
</svg>
