<svg width="24" height="24" viewBox="0 0 24 24" fill="none" xmlns="http://www.w3.org/2000/svg">
<path d="M12 2.25C10.0716 2.25 8.18657 2.82183 6.58319 3.89317C4.97982 4.96451 3.73013 6.48726 2.99218 8.26884C2.25422 10.0504 2.06114 12.0108 2.43735 13.9021C2.81355 15.7934 3.74215 17.5307 5.10571 18.8943C6.46928 20.2579 8.20656 21.1865 10.0979 21.5627C11.9892 21.9389 13.9496 21.7458 15.7312 21.0078C17.5127 20.2699 19.0355 19.0202 20.1068 17.4168C21.1782 15.8134 21.75 13.9284 21.75 12C21.7473 9.41498 20.7192 6.93661 18.8913 5.10872C17.0634 3.28084 14.585 2.25273 12 2.25ZM12 20.25C10.3683 20.25 8.77326 19.7661 7.41655 18.8596C6.05984 17.9531 5.00242 16.6646 4.378 15.1571C3.75358 13.6496 3.5902 11.9908 3.90853 10.3905C4.22685 8.79016 5.01259 7.32015 6.16637 6.16637C7.32016 5.01259 8.79017 4.22685 10.3905 3.90852C11.9909 3.59019 13.6497 3.75357 15.1571 4.37799C16.6646 5.00242 17.9531 6.05984 18.8596 7.41655C19.7661 8.77325 20.25 10.3683 20.25 12C20.2475 14.1873 19.3775 16.2843 17.8309 17.8309C16.2843 19.3775 14.1873 20.2475 12 20.25ZM15.5306 8.46937C15.6004 8.53903 15.6557 8.62175 15.6934 8.71279C15.7312 8.80384 15.7506 8.90144 15.7506 9C15.7506 9.09856 15.7312 9.19616 15.6934 9.28721C15.6557 9.37825 15.6004 9.46097 15.5306 9.53063L10.8103 14.25H13.5C13.6989 14.25 13.8897 14.329 14.0303 14.4697C14.171 14.6103 14.25 14.8011 14.25 15C14.25 15.1989 14.171 15.3897 14.0303 15.5303C13.8897 15.671 13.6989 15.75 13.5 15.75H9C8.80109 15.75 8.61033 15.671 8.46967 15.5303C8.32902 15.3897 8.25 15.1989 8.25 15V10.5C8.25 10.3011 8.32902 10.1103 8.46967 9.96967C8.61033 9.82902 8.80109 9.75 9 9.75C9.19892 9.75 9.38968 9.82902 9.53033 9.96967C9.67099 10.1103 9.75 10.3011 9.75 10.5V13.1897L14.4694 8.46937C14.539 8.39964 14.6218 8.34432 14.7128 8.30658C14.8038 8.26884 14.9014 8.24941 15 8.24941C15.0986 8.24941 15.1962 8.26884 15.2872 8.30658C15.3783 8.34432 15.461 8.39964 15.5306 8.46937Z" fill="#1D1D1D"/>
</svg>
