<svg width="24" height="24" viewBox="0 0 24 24" fill="none" xmlns="http://www.w3.org/2000/svg">
<path d="M23.2499 11.9999C23.25 13.0383 22.9422 14.0534 22.3653 14.9168C21.7884 15.7803 20.9684 16.4532 20.0091 16.8506C19.0497 17.248 17.9941 17.352 16.9756 17.1494C15.9572 16.9468 15.0217 16.4467 14.2874 15.7124L14.2565 15.6796L8.63619 9.33271C8.11001 8.81267 7.44176 8.45989 6.71554 8.31876C5.98933 8.17763 5.23759 8.25446 4.55493 8.53958C3.87228 8.82469 3.28921 9.30536 2.8791 9.92109C2.46899 10.5368 2.25017 11.2601 2.25017 11.9999C2.25017 12.7397 2.46899 13.463 2.8791 14.0787C3.28921 14.6944 3.87228 15.1751 4.55493 15.4602C5.23759 15.7453 5.98933 15.8222 6.71554 15.681C7.44176 15.5399 8.11001 15.1871 8.63619 14.6671L9.43494 13.7652C9.50026 13.6913 9.57948 13.6311 9.66809 13.5878C9.7567 13.5446 9.85296 13.5192 9.95137 13.5131C10.0498 13.5071 10.1484 13.5205 10.2417 13.5525C10.3349 13.5846 10.4209 13.6347 10.4948 13.7C10.5687 13.7654 10.6289 13.8446 10.6722 13.9332C10.7154 14.0218 10.7408 14.1181 10.7469 14.2165C10.7529 14.3149 10.7395 14.4135 10.7075 14.5068C10.6754 14.6 10.6253 14.686 10.5599 14.7599L9.74526 15.6796L9.71432 15.7124C8.98007 16.4466 8.04461 16.9465 7.02622 17.1491C6.00784 17.3516 4.95227 17.2476 3.99299 16.8502C3.0337 16.4528 2.2138 15.7799 1.63694 14.9166C1.06009 14.0532 0.752197 13.0382 0.752197 11.9999C0.752197 10.9616 1.06009 9.94655 1.63694 9.08321C2.2138 8.21986 3.0337 7.54695 3.99299 7.14958C4.95227 6.7522 6.00784 6.6482 7.02622 6.85073C8.04461 7.05326 8.98007 7.55322 9.71432 8.28739L9.74526 8.32021L15.3656 14.6671C15.8918 15.1871 16.56 15.5399 17.2862 15.681C18.0124 15.8222 18.7642 15.7453 19.4468 15.4602C20.1295 15.1751 20.7125 14.6944 21.1227 14.0787C21.5328 13.463 21.7516 12.7397 21.7516 11.9999C21.7516 11.2601 21.5328 10.5368 21.1227 9.92109C20.7125 9.30536 20.1295 8.82469 19.4468 8.53958C18.7642 8.25446 18.0124 8.17763 17.2862 8.31876C16.56 8.45989 15.8918 8.81267 15.3656 9.33271L14.5668 10.2346C14.4349 10.3838 14.2492 10.4744 14.0504 10.4867C13.8516 10.4989 13.6562 10.4316 13.507 10.2997C13.3578 10.1678 13.2671 9.98207 13.2549 9.78331C13.2427 9.58455 13.3099 9.38908 13.4418 9.23989L14.2565 8.32021L14.2874 8.28739C15.0217 7.55309 15.9572 7.05302 16.9756 6.85041C17.9941 6.64781 19.0497 6.75178 20.0091 7.14917C20.9684 7.54656 21.7884 8.21952 22.3653 9.08295C22.9422 9.94638 23.25 10.9615 23.2499 11.9999Z" fill="#1D1D1D"/>
</svg>
